<mxfile host="app.diagrams.net" modified="2024-04-18T20:29:38.087Z" agent="Mozilla/5.0 (X11; Linux x86_64; rv:125.0) Gecko/20100101 Firefox/125.0" etag="Bq_Ze7OOWfL2VrS46XjP" version="24.2.5" type="device">
  <diagram name="Page-1" id="6MisdiE591be4nH8-Z_b">
    <mxGraphModel dx="1914" dy="992" grid="1" gridSize="10" guides="1" tooltips="1" connect="1" arrows="1" fold="1" page="1" pageScale="1" pageWidth="850" pageHeight="1100" math="0" shadow="0">
      <root>
        <mxCell id="0" />
        <mxCell id="1" parent="0" />
        <mxCell id="Lg3jNKxZTNO3hxB_RX_t-4" value="" style="rounded=0;whiteSpace=wrap;html=1;" vertex="1" parent="1">
          <mxGeometry x="540" y="180" width="270" height="150" as="geometry" />
        </mxCell>
        <mxCell id="Lg3jNKxZTNO3hxB_RX_t-5" value="&lt;font style=&quot;font-size: 22px;&quot;&gt;struct instance&lt;/font&gt;" style="text;html=1;align=center;verticalAlign=middle;whiteSpace=wrap;rounded=0;" vertex="1" parent="1">
          <mxGeometry x="635" y="130" width="210" height="50" as="geometry" />
        </mxCell>
        <mxCell id="Lg3jNKxZTNO3hxB_RX_t-6" value="" style="rounded=0;whiteSpace=wrap;html=1;" vertex="1" parent="1">
          <mxGeometry x="557.5" y="190" width="235" height="50" as="geometry" />
        </mxCell>
        <mxCell id="Lg3jNKxZTNO3hxB_RX_t-9" value="&lt;font style=&quot;font-size: 20px;&quot;&gt;elm_inst_arr_size&lt;/font&gt;" style="text;html=1;align=center;verticalAlign=middle;whiteSpace=wrap;rounded=0;" vertex="1" parent="1">
          <mxGeometry x="565" y="200" width="220" height="30" as="geometry" />
        </mxCell>
        <mxCell id="Lg3jNKxZTNO3hxB_RX_t-11" value="" style="rounded=0;whiteSpace=wrap;html=1;" vertex="1" parent="1">
          <mxGeometry x="555" y="250" width="240" height="70" as="geometry" />
        </mxCell>
        <mxCell id="Lg3jNKxZTNO3hxB_RX_t-12" value="&lt;font style=&quot;font-size: 20px;&quot;&gt;elm_inst_arr&lt;/font&gt;" style="text;html=1;align=center;verticalAlign=middle;whiteSpace=wrap;rounded=0;" vertex="1" parent="1">
          <mxGeometry x="600" y="270" width="155" height="30" as="geometry" />
        </mxCell>
        <mxCell id="Lg3jNKxZTNO3hxB_RX_t-13" value="" style="ellipse;whiteSpace=wrap;html=1;aspect=fixed;fillColor=#000000;" vertex="1" parent="1">
          <mxGeometry x="580" y="275" width="20" height="20" as="geometry" />
        </mxCell>
        <mxCell id="Lg3jNKxZTNO3hxB_RX_t-14" value="" style="rounded=0;whiteSpace=wrap;html=1;" vertex="1" parent="1">
          <mxGeometry x="250" y="255" width="200" height="175" as="geometry" />
        </mxCell>
        <mxCell id="Lg3jNKxZTNO3hxB_RX_t-15" value="&lt;font style=&quot;font-size: 22px;&quot;&gt;struct elm_convert&lt;br&gt;&lt;/font&gt;" style="text;html=1;align=center;verticalAlign=middle;whiteSpace=wrap;rounded=0;" vertex="1" parent="1">
          <mxGeometry x="230" y="220" width="240" height="30" as="geometry" />
        </mxCell>
        <mxCell id="Lg3jNKxZTNO3hxB_RX_t-16" value="" style="curved=1;endArrow=classic;html=1;rounded=0;exitX=0;exitY=0.5;exitDx=0;exitDy=0;entryX=1;entryY=0.25;entryDx=0;entryDy=0;" edge="1" parent="1" source="Lg3jNKxZTNO3hxB_RX_t-13" target="Lg3jNKxZTNO3hxB_RX_t-14">
          <mxGeometry width="50" height="50" relative="1" as="geometry">
            <mxPoint x="480" y="295" as="sourcePoint" />
            <mxPoint x="530" y="245" as="targetPoint" />
            <Array as="points">
              <mxPoint x="480" y="245" />
            </Array>
          </mxGeometry>
        </mxCell>
        <mxCell id="Lg3jNKxZTNO3hxB_RX_t-17" value="" style="rounded=0;whiteSpace=wrap;html=1;" vertex="1" parent="1">
          <mxGeometry x="260" y="270" width="180" height="30" as="geometry" />
        </mxCell>
        <mxCell id="Lg3jNKxZTNO3hxB_RX_t-18" value="&lt;font style=&quot;font-size: 20px;&quot;&gt;name&lt;/font&gt;" style="text;html=1;align=center;verticalAlign=middle;whiteSpace=wrap;rounded=0;" vertex="1" parent="1">
          <mxGeometry x="320" y="270" width="60" height="30" as="geometry" />
        </mxCell>
        <mxCell id="Lg3jNKxZTNO3hxB_RX_t-19" value="&lt;font style=&quot;font-size: 20px;&quot;&gt;elm_arr_size&lt;/font&gt;" style="rounded=0;whiteSpace=wrap;html=1;" vertex="1" parent="1">
          <mxGeometry x="260" y="310" width="180" height="30" as="geometry" />
        </mxCell>
        <mxCell id="Lg3jNKxZTNO3hxB_RX_t-23" value="&lt;font style=&quot;font-size: 20px;&quot;&gt;elm_arr&lt;/font&gt;" style="rounded=0;whiteSpace=wrap;html=1;" vertex="1" parent="1">
          <mxGeometry x="260" y="350" width="180" height="70" as="geometry" />
        </mxCell>
        <mxCell id="Lg3jNKxZTNO3hxB_RX_t-24" value="" style="rounded=0;whiteSpace=wrap;html=1;" vertex="1" parent="1">
          <mxGeometry x="250" y="430" width="200" height="175" as="geometry" />
        </mxCell>
        <mxCell id="Lg3jNKxZTNO3hxB_RX_t-25" value="" style="rounded=0;whiteSpace=wrap;html=1;" vertex="1" parent="1">
          <mxGeometry x="260" y="445" width="180" height="30" as="geometry" />
        </mxCell>
        <mxCell id="Lg3jNKxZTNO3hxB_RX_t-26" value="&lt;font style=&quot;font-size: 20px;&quot;&gt;name&lt;/font&gt;" style="text;html=1;align=center;verticalAlign=middle;whiteSpace=wrap;rounded=0;" vertex="1" parent="1">
          <mxGeometry x="320" y="445" width="60" height="30" as="geometry" />
        </mxCell>
        <mxCell id="Lg3jNKxZTNO3hxB_RX_t-27" value="&lt;font style=&quot;font-size: 20px;&quot;&gt;elm_arr_size&lt;/font&gt;" style="rounded=0;whiteSpace=wrap;html=1;" vertex="1" parent="1">
          <mxGeometry x="260" y="485" width="180" height="30" as="geometry" />
        </mxCell>
        <mxCell id="Lg3jNKxZTNO3hxB_RX_t-28" value="&lt;font style=&quot;font-size: 20px;&quot;&gt;elm_arr&lt;/font&gt;" style="rounded=0;whiteSpace=wrap;html=1;" vertex="1" parent="1">
          <mxGeometry x="260" y="525" width="180" height="70" as="geometry" />
        </mxCell>
        <mxCell id="Lg3jNKxZTNO3hxB_RX_t-29" value="" style="rounded=0;whiteSpace=wrap;html=1;" vertex="1" parent="1">
          <mxGeometry x="250" y="740" width="200" height="175" as="geometry" />
        </mxCell>
        <mxCell id="Lg3jNKxZTNO3hxB_RX_t-30" value="" style="rounded=0;whiteSpace=wrap;html=1;" vertex="1" parent="1">
          <mxGeometry x="260" y="755" width="180" height="30" as="geometry" />
        </mxCell>
        <mxCell id="Lg3jNKxZTNO3hxB_RX_t-31" value="&lt;font style=&quot;font-size: 20px;&quot;&gt;name&lt;/font&gt;" style="text;html=1;align=center;verticalAlign=middle;whiteSpace=wrap;rounded=0;" vertex="1" parent="1">
          <mxGeometry x="320" y="755" width="60" height="30" as="geometry" />
        </mxCell>
        <mxCell id="Lg3jNKxZTNO3hxB_RX_t-32" value="&lt;font style=&quot;font-size: 20px;&quot;&gt;elm_arr_size&lt;/font&gt;" style="rounded=0;whiteSpace=wrap;html=1;" vertex="1" parent="1">
          <mxGeometry x="260" y="795" width="180" height="30" as="geometry" />
        </mxCell>
        <mxCell id="Lg3jNKxZTNO3hxB_RX_t-33" value="&lt;font style=&quot;font-size: 20px;&quot;&gt;elm_arr&lt;/font&gt;" style="rounded=0;whiteSpace=wrap;html=1;" vertex="1" parent="1">
          <mxGeometry x="260" y="835" width="180" height="70" as="geometry" />
        </mxCell>
        <mxCell id="Lg3jNKxZTNO3hxB_RX_t-34" value="" style="ellipse;whiteSpace=wrap;html=1;aspect=fixed;fillColor=#000000;" vertex="1" parent="1">
          <mxGeometry x="340" y="620" width="12" height="12" as="geometry" />
        </mxCell>
        <mxCell id="Lg3jNKxZTNO3hxB_RX_t-35" value="" style="ellipse;whiteSpace=wrap;html=1;aspect=fixed;fillColor=#000000;" vertex="1" parent="1">
          <mxGeometry x="340" y="660" width="12" height="12" as="geometry" />
        </mxCell>
        <mxCell id="Lg3jNKxZTNO3hxB_RX_t-36" value="" style="ellipse;whiteSpace=wrap;html=1;aspect=fixed;fillColor=#000000;" vertex="1" parent="1">
          <mxGeometry x="340" y="700" width="12" height="12" as="geometry" />
        </mxCell>
        <mxCell id="Lg3jNKxZTNO3hxB_RX_t-40" value="" style="ellipse;whiteSpace=wrap;html=1;aspect=fixed;fillColor=#050505;" vertex="1" parent="1">
          <mxGeometry x="270" y="375" width="20" height="20" as="geometry" />
        </mxCell>
        <mxCell id="Lg3jNKxZTNO3hxB_RX_t-41" value="" style="ellipse;whiteSpace=wrap;html=1;aspect=fixed;fillColor=#050505;" vertex="1" parent="1">
          <mxGeometry x="270" y="550" width="20" height="20" as="geometry" />
        </mxCell>
        <mxCell id="Lg3jNKxZTNO3hxB_RX_t-42" value="" style="ellipse;whiteSpace=wrap;html=1;aspect=fixed;fillColor=#050505;" vertex="1" parent="1">
          <mxGeometry x="270" y="860" width="20" height="20" as="geometry" />
        </mxCell>
        <mxCell id="Lg3jNKxZTNO3hxB_RX_t-44" value="" style="rounded=0;whiteSpace=wrap;html=1;" vertex="1" parent="1">
          <mxGeometry x="40" y="350" width="130" height="100" as="geometry" />
        </mxCell>
        <mxCell id="Lg3jNKxZTNO3hxB_RX_t-45" value="&lt;font style=&quot;font-size: 22px;&quot;&gt;struct elm_id&lt;/font&gt;" style="text;html=1;align=center;verticalAlign=middle;whiteSpace=wrap;rounded=0;" vertex="1" parent="1">
          <mxGeometry x="30" y="310" width="150" height="30" as="geometry" />
        </mxCell>
        <mxCell id="Lg3jNKxZTNO3hxB_RX_t-46" value="&lt;font style=&quot;font-size: 20px;&quot;&gt;pen&lt;/font&gt;" style="rounded=0;whiteSpace=wrap;html=1;" vertex="1" parent="1">
          <mxGeometry x="45" y="365" width="120" height="30" as="geometry" />
        </mxCell>
        <mxCell id="Lg3jNKxZTNO3hxB_RX_t-47" value="&lt;font style=&quot;font-size: 20px;&quot;&gt;id&lt;/font&gt;" style="rounded=0;whiteSpace=wrap;html=1;" vertex="1" parent="1">
          <mxGeometry x="45" y="400" width="120" height="30" as="geometry" />
        </mxCell>
        <mxCell id="Lg3jNKxZTNO3hxB_RX_t-48" value="" style="curved=1;endArrow=classic;html=1;rounded=0;exitX=0;exitY=0.5;exitDx=0;exitDy=0;entryX=1.031;entryY=0.37;entryDx=0;entryDy=0;entryPerimeter=0;" edge="1" parent="1" source="Lg3jNKxZTNO3hxB_RX_t-40" target="Lg3jNKxZTNO3hxB_RX_t-44">
          <mxGeometry width="50" height="50" relative="1" as="geometry">
            <mxPoint x="220" y="380" as="sourcePoint" />
            <mxPoint x="270" y="330" as="targetPoint" />
            <Array as="points">
              <mxPoint x="270" y="380" />
              <mxPoint x="250" y="380" />
              <mxPoint x="220" y="330" />
              <mxPoint x="190" y="360" />
            </Array>
          </mxGeometry>
        </mxCell>
        <mxCell id="Lg3jNKxZTNO3hxB_RX_t-49" value="" style="rounded=0;whiteSpace=wrap;html=1;" vertex="1" parent="1">
          <mxGeometry x="40" y="450" width="130" height="100" as="geometry" />
        </mxCell>
        <mxCell id="Lg3jNKxZTNO3hxB_RX_t-50" value="&lt;font style=&quot;font-size: 20px;&quot;&gt;pen&lt;/font&gt;" style="rounded=0;whiteSpace=wrap;html=1;" vertex="1" parent="1">
          <mxGeometry x="45" y="465" width="120" height="30" as="geometry" />
        </mxCell>
        <mxCell id="Lg3jNKxZTNO3hxB_RX_t-51" value="&lt;font style=&quot;font-size: 20px;&quot;&gt;id&lt;/font&gt;" style="rounded=0;whiteSpace=wrap;html=1;" vertex="1" parent="1">
          <mxGeometry x="45" y="500" width="120" height="30" as="geometry" />
        </mxCell>
        <mxCell id="Lg3jNKxZTNO3hxB_RX_t-52" value="" style="ellipse;whiteSpace=wrap;html=1;aspect=fixed;fillColor=#000000;" vertex="1" parent="1">
          <mxGeometry x="99" y="568" width="12" height="12" as="geometry" />
        </mxCell>
        <mxCell id="Lg3jNKxZTNO3hxB_RX_t-53" value="" style="ellipse;whiteSpace=wrap;html=1;aspect=fixed;fillColor=#000000;" vertex="1" parent="1">
          <mxGeometry x="99" y="608" width="12" height="12" as="geometry" />
        </mxCell>
        <mxCell id="Lg3jNKxZTNO3hxB_RX_t-54" value="" style="ellipse;whiteSpace=wrap;html=1;aspect=fixed;fillColor=#000000;" vertex="1" parent="1">
          <mxGeometry x="99" y="648" width="12" height="12" as="geometry" />
        </mxCell>
        <mxCell id="Lg3jNKxZTNO3hxB_RX_t-55" value="" style="rounded=0;whiteSpace=wrap;html=1;" vertex="1" parent="1">
          <mxGeometry x="40" y="672" width="130" height="100" as="geometry" />
        </mxCell>
        <mxCell id="Lg3jNKxZTNO3hxB_RX_t-56" value="&lt;font style=&quot;font-size: 20px;&quot;&gt;pen&lt;/font&gt;" style="rounded=0;whiteSpace=wrap;html=1;" vertex="1" parent="1">
          <mxGeometry x="45" y="687" width="120" height="30" as="geometry" />
        </mxCell>
        <mxCell id="Lg3jNKxZTNO3hxB_RX_t-57" value="&lt;font style=&quot;font-size: 20px;&quot;&gt;id&lt;/font&gt;" style="rounded=0;whiteSpace=wrap;html=1;" vertex="1" parent="1">
          <mxGeometry x="45" y="722" width="120" height="30" as="geometry" />
        </mxCell>
      </root>
    </mxGraphModel>
  </diagram>
</mxfile>
